<svg width="100" height="58" viewBox="0 0 100 58" fill="none" xmlns="http://www.w3.org/2000/svg">
  <g clip-path="url(#clip0_417_25385)">
    <mask id="mask0_417_25385" style="mask-type:luminance" maskUnits="userSpaceOnUse" x="0" y="0" width="100" height="58">
      <path d="M-1.90735e-06 -3.8147e-06H100V57.6271H-1.90735e-06V-3.8147e-06Z" fill="white"/>
    </mask>
    <g mask="url(#mask0_417_25385)">
      <path d="M52.4491 11.2652C52.4361 11.574 52.4193 11.7941 52.4185 12.0141C52.4157 13.0469 52.4175 14.0797 52.4171 15.1124C52.4171 15.2697 52.4149 15.4268 52.4133 15.5839C52.4027 16.6003 51.2492 17.3945 50.223 16.9351C50.0605 16.8623 49.9081 16.7643 49.7582 16.667C46.337 14.4466 42.917 12.2246 39.4968 10.0026C39.3841 9.92924 39.268 9.85939 39.1643 9.77471C38.3765 9.13206 38.3692 7.95915 39.1509 7.30641C39.2877 7.19184 39.4421 7.09747 39.5924 6.99992C42.9561 4.81456 46.3206 2.63018 49.6852 0.446201C49.8167 0.360729 49.9484 0.27486 50.0858 0.199474C51.1947 -0.408943 52.4293 0.471531 52.4177 1.53424C52.4052 2.67905 52.4151 3.82427 52.4183 4.96928C52.4191 5.21245 52.4327 5.45582 52.4416 5.73619C52.5946 5.76369 52.7192 5.7995 52.8454 5.80564C53.0689 5.81672 53.2934 5.81059 53.5173 5.81059C61.2699 5.81059 69.0226 5.79871 76.775 5.81514C81.2915 5.82483 85.5134 6.96035 89.3287 9.40511C94.7889 12.9037 98.1807 17.8688 99.5621 24.2133C100.923 31.8648 99.133 38.649 93.9103 44.4364C90.8196 47.8614 86.9538 50.0361 82.4914 51.149C80.6146 51.6172 78.7051 51.8421 76.7697 51.8399C74.8203 51.8378 72.8709 51.8393 70.9217 51.8395C70.5629 51.8397 70.2089 51.8273 69.8588 51.7194C68.5746 51.3233 67.8164 50.1423 67.9676 48.7515C68.0977 47.5577 69.1626 46.5403 70.4032 46.432C70.6259 46.4126 70.851 46.415 71.0749 46.4148C73.0241 46.4136 74.9735 46.421 76.9229 46.4119C78.3153 46.4053 79.692 46.254 81.0512 45.9348C86.7636 44.5939 91.4913 40.4106 93.514 34.8861C94.3184 32.6893 94.6932 30.417 94.5775 28.0803C94.3836 24.1641 93.0476 20.673 90.524 17.6715C87.6213 14.219 83.9126 12.1641 79.4688 11.4462C78.6729 11.3178 77.8681 11.2622 77.0588 11.2626C69.0822 11.267 61.1055 11.2652 53.1289 11.2652H52.4491Z" fill="#39AE70"/>
      <path d="M47.5653 46.3625C47.5702 46.071 47.5768 45.8488 47.577 45.6268C47.5781 44.5717 47.5758 43.5165 47.5793 42.4611C47.5799 42.2601 47.5819 42.0553 47.6178 41.8584C47.8072 40.8169 48.9765 40.2482 49.9047 40.7532C50.0421 40.8279 50.1752 40.9118 50.3065 40.9971C53.69 43.1936 57.0729 45.3908 60.4556 47.5882C60.5683 47.6614 60.6821 47.7337 60.7913 47.812C61.6537 48.4301 61.6446 49.7582 60.8153 50.3654C60.689 50.458 60.5569 50.5429 60.4254 50.6283C57.062 52.8145 53.6985 55.0005 50.3345 57.1858C50.203 57.2713 50.0731 57.3611 49.9343 57.4329C48.8945 57.9713 47.7164 57.3384 47.5892 56.1716C47.5697 55.9939 47.5781 55.8129 47.5779 55.6332C47.5772 54.6229 47.5776 53.6127 47.5776 52.6024V51.9026C47.4249 51.8711 47.3011 51.8309 47.1751 51.823C46.9743 51.8104 46.7722 51.8187 46.5704 51.8187C38.7058 51.8187 30.8404 51.8768 22.9765 51.8005C16.6019 51.7383 11.0739 49.4665 6.56554 44.9043C3.20752 41.506 1.13351 37.4172 0.332265 32.6943C-1.19362 23.701 2.62959 14.9097 9.89592 9.89412C12.7046 7.95549 15.8024 6.7244 19.162 6.14546C20.6012 5.89735 22.0497 5.78555 23.5091 5.78852C25.3688 5.79228 27.2286 5.78694 29.0882 5.79228C29.3555 5.79287 29.6276 5.80455 29.8889 5.85579C31.1893 6.11123 32.0981 7.22954 32.0855 8.53759C32.0728 9.82961 31.1231 10.9404 29.8201 11.1656C29.5354 11.2148 29.2412 11.2253 28.9514 11.2261C27.1141 11.2313 25.2766 11.2192 23.4394 11.2328C22.522 11.2398 21.6057 11.2605 20.6909 11.3818C17.7428 11.7728 15.0612 12.8323 12.6711 14.5959C9.01786 17.2911 6.63564 20.8627 5.78976 25.3278C4.61297 31.539 6.32406 36.9327 10.8194 41.3772C13.4441 43.9725 16.6432 45.5115 20.2731 46.1444C21.335 46.3294 22.4103 46.3896 23.486 46.3904C31.2611 46.3955 39.0363 46.3933 46.8113 46.392C47.0322 46.392 47.2529 46.3751 47.5653 46.3625Z" fill="#39AE70"/>
      <path d="M80.125 28.1058C80.1509 27.0434 79.3828 25.9554 78.5441 25.2916C77.3256 24.3272 75.4686 24.4042 74.3753 25.1159C71.924 26.7114 71.9127 30.2616 74.3698 31.8477C75.573 32.6245 77.1923 32.617 78.3668 31.7978C79.5096 31.0008 80.11 29.9 80.125 28.1058ZM83.1136 28.5464C83.1318 32.3204 79.8466 35.3939 76.1224 35.2879C72.6577 35.1891 69.4077 32.1376 69.5556 28.1873C69.6748 24.997 72.4223 21.628 76.4468 21.6834C80.1424 21.7345 83.1895 24.8624 83.1136 28.5464Z" fill="#39AE70"/>
      <path d="M61.5989 27.0469C61.6384 27.0663 61.6778 27.1023 61.7175 27.1027C62.3438 27.1088 62.9709 27.1266 63.5965 27.1041C63.8115 27.0964 64.0387 27.0168 64.2324 26.9161C64.6653 26.6908 64.8982 26.3154 64.872 25.8204C64.8445 25.2996 64.5717 24.9302 64.078 24.761C63.849 24.6827 63.5992 24.6415 63.357 24.631C62.8874 24.6113 62.4165 24.6209 61.9462 24.6275C61.8194 24.6291 61.6932 24.6631 61.5768 24.6807C61.4919 25.4282 61.5049 26.5602 61.5989 27.0469ZM58.6373 21.9208C58.8498 21.9208 59.0263 21.9208 59.2028 21.9208C60.7026 21.9208 62.2025 21.9128 63.7021 21.9265C64.0792 21.9299 64.4635 21.9675 64.8315 22.0488C66.3775 22.3909 67.5148 23.6287 67.7429 25.1983C67.7848 25.4852 67.8152 25.7792 67.8023 26.0679C67.7425 27.4228 67.0872 28.3955 65.8804 28.9998C65.7019 29.0892 65.5206 29.1733 65.3083 29.2754C65.5575 29.702 65.8817 30.0427 66.1694 30.4097C66.4735 30.7977 66.7829 31.1816 67.0909 31.5664C67.3851 31.9339 67.6811 32.2997 67.9755 32.6667C68.2839 33.0514 68.5949 33.434 68.8984 33.8224C69.1819 34.1853 69.4931 34.5292 69.7545 34.937C69.2334 35.0695 67.4215 35.1004 66.3236 35.0058C66.2018 34.8661 66.051 34.7043 65.912 34.5325C64.7425 33.0864 63.5751 31.6383 62.4066 30.1911C62.2941 30.0516 62.1839 29.9097 62.0637 29.7772C61.9264 29.6262 61.7612 29.6122 61.5523 29.7081C61.4966 30.2851 61.5321 30.8664 61.526 31.4461C61.5199 32.0294 61.5272 32.6125 61.5238 33.1956C61.5207 33.7751 61.5404 34.3555 61.5065 34.95C61.1852 35.1101 60.8681 35.031 60.5648 35.0436C60.2298 35.0575 59.8933 35.0543 59.5578 35.0446C59.251 35.0357 58.9373 35.0903 58.604 34.9795C58.5911 34.8369 58.572 34.7077 58.569 34.5781C58.4942 31.2973 58.5337 22.6701 58.6373 21.9208Z" fill="#39AE70"/>
      <path d="M20.243 27.0095C20.3295 27.059 20.368 27.0999 20.4067 27.1001C21.0543 27.1055 21.7026 27.1225 22.3492 27.0973C22.5625 27.089 22.7889 27.0002 22.9787 26.8933C23.4067 26.6528 23.604 26.2602 23.5687 25.7711C23.5349 25.3061 23.2895 24.9626 22.8596 24.7941C22.6152 24.6983 22.3425 24.6474 22.0795 24.633C21.6113 24.6075 21.1408 24.6219 20.6713 24.6269C20.5435 24.6282 20.416 24.655 20.2381 24.6759C20.2339 25.4842 20.2217 26.2604 20.243 27.0095ZM23.9809 29.289C24.4084 29.8278 24.7826 30.3009 25.1587 30.7728C25.5222 31.2287 25.8879 31.6831 26.2524 32.1382C26.6309 32.6111 27.0116 33.082 27.3871 33.5573C27.7429 34.0076 28.122 34.4413 28.4583 34.9334C27.9481 35.0713 26.2269 35.1039 25.0219 35.0074C24.8781 34.8386 24.7014 34.64 24.5342 34.4334C23.3777 33.0033 22.2234 31.5712 21.0682 30.1402C20.9694 30.0182 20.8719 29.8949 20.7669 29.7785C20.6508 29.6499 20.5064 29.6125 20.3342 29.6766C20.1824 29.8151 20.2359 30.0049 20.2353 30.1753C20.2306 31.5446 20.2339 32.914 20.2314 34.2836C20.231 34.5036 20.2138 34.7239 20.2051 34.9304C19.7316 35.0699 18.2691 35.1002 17.3705 34.9983C17.2045 34.7838 17.2797 34.5268 17.2793 34.2894C17.2732 31.2362 17.2754 28.183 17.2754 25.1298C17.2754 24.3216 17.2754 23.5135 17.2754 22.7052V22.0092C17.4031 21.9761 17.5052 21.9269 17.6075 21.9267C19.3101 21.9227 21.0133 21.8998 22.7155 21.9326C24.4821 21.9668 25.9193 23.1124 26.3665 24.7834C26.5497 25.468 26.5557 26.1642 26.3926 26.85C26.1722 27.778 25.5915 28.4392 24.7711 28.8971C24.5373 29.0273 24.2917 29.1359 23.9809 29.289Z" fill="#39AE70"/>
      <path d="M31.0728 29.2281C31.1838 29.2618 31.2444 29.2958 31.305 29.296C32.4188 29.2991 33.5326 29.2999 34.6464 29.2946C34.7225 29.2942 34.7981 29.242 34.8729 29.2143C34.5667 28.295 33.9467 27.8441 33.0197 27.8387C32.0587 27.8332 31.4132 28.2804 31.0728 29.2281ZM37.899 31.991C37.8443 32.196 37.8279 32.3052 37.7867 32.404C37.2897 33.5889 36.3958 34.3717 35.2338 34.8489C34.0347 35.3416 32.7886 35.4227 31.5498 35.0363C29.5984 34.4275 28.4848 33.062 28.2471 31.0427C28.019 29.1037 28.674 27.4998 30.3185 26.3853C32.0705 25.1977 34.8593 25.2769 36.597 26.9551C37.2624 27.5976 37.6504 28.3985 37.8635 29.2881C37.9989 29.8534 38.0781 30.4252 37.9843 31.0407C37.2072 31.1248 36.4495 31.0704 35.6943 31.0799C34.9104 31.0898 34.1264 31.0821 33.3423 31.0821C32.5823 31.0821 31.8225 31.0821 31.0104 31.0821C31.026 31.2712 31.0037 31.4299 31.0556 31.5585C31.2868 32.1315 31.7038 32.516 32.2966 32.7012C33.362 33.0341 34.2085 32.8248 35.1004 31.9819C35.9749 31.9772 36.8883 31.9677 37.899 31.991Z" fill="#39AE70"/>
      <path d="M53.4999 25.8363C54.2408 25.7522 55.6802 25.7619 56.221 25.8495C56.2395 25.9672 56.2771 26.0953 56.2773 26.2235C56.2804 29.0287 56.2798 31.834 56.2784 34.6393C56.2782 34.7271 56.2632 34.8148 56.2526 34.9303C56.1728 34.9596 56.0938 35.0136 56.0146 35.014C55.231 35.0182 54.4475 35.014 53.6638 35.0091C53.6223 35.0089 53.5809 34.9804 53.5053 34.9525C53.4826 34.7607 53.4581 34.5526 53.4261 34.2827C53.305 34.3713 53.2342 34.4167 53.1706 34.4707C51.4281 35.9463 48.7817 35.308 47.9149 33.2018C47.7083 32.6996 47.5695 32.1749 47.5644 31.6342C47.5468 29.7717 47.5512 27.909 47.5504 26.0466C47.5504 25.9845 47.5847 25.9223 47.6011 25.8665C48.1384 25.7514 49.7071 25.7464 50.3145 25.865C50.3261 26.0476 50.349 26.2435 50.3494 26.4393C50.3528 27.8083 50.3421 29.1773 50.3575 30.5461C50.3617 30.9234 50.4077 31.3071 50.4902 31.6753C50.6136 32.2265 50.9633 32.5993 51.5377 32.6737C52.1543 32.7538 52.6953 32.5813 53.0663 32.0423C53.3147 31.6816 53.4059 31.2636 53.45 30.8368C53.4731 30.6144 53.4681 30.3884 53.4683 30.1643C53.4699 28.9524 53.4677 27.7405 53.4705 26.5286C53.4709 26.3089 53.4887 26.0893 53.4999 25.8363Z" fill="#39AE70"/>
      <path d="M45.9141 34.9362C45.7528 34.9927 45.671 35.0359 45.5846 35.0495C44.6937 35.1914 43.8016 35.2298 42.9225 34.9854C41.477 34.5836 40.6108 33.5094 40.5545 32.0027C40.5168 30.9948 40.5419 29.9845 40.5352 28.9752C40.5338 28.7564 40.516 28.5376 40.5048 28.3001C39.9028 28.1676 39.3173 28.3061 38.722 28.1988C38.6444 27.4139 38.6803 26.6617 38.6959 25.8799C39.2806 25.6993 39.8706 25.8845 40.4611 25.7527C40.6086 25.3627 40.518 24.9579 40.5332 24.5643C40.5486 24.1629 40.5366 23.7602 40.5366 23.3422C41.0174 23.153 41.4881 23.2597 41.9464 23.2462C42.3869 23.2331 42.8321 23.2116 43.2882 23.2763C43.4284 24.114 43.2582 24.924 43.396 25.7446C44.2046 25.8833 45.0125 25.727 45.8233 25.8397C46.0016 26.2277 45.8967 26.6345 45.9084 27.0277C45.9194 27.4028 45.9496 27.7835 45.8663 28.1953C45.0526 28.3065 44.249 28.1876 43.4178 28.2693C43.3927 28.4001 43.3492 28.5243 43.3482 28.649C43.3419 29.4788 43.3433 30.3088 43.3445 31.1386C43.3461 32.2668 43.878 32.6354 44.8753 32.6449C45.1847 32.6479 45.4945 32.5977 45.8272 32.57C45.9696 32.8303 45.8999 33.1016 45.9117 33.3592C45.9228 33.6054 45.9141 33.8525 45.9141 34.0992C45.9141 34.3665 45.9141 34.6336 45.9141 34.9362Z" fill="#39AE70"/>
    </g>
  </g>
  <defs>
    <clipPath id="clip0_417_25385">
      <rect width="100" height="57.6271" fill="white"/>
    </clipPath>
  </defs>
</svg>
