<?xml version="1.0" encoding="utf-8"?>
<!-- Generator: Adobe Illustrator 26.5.0, SVG Export Plug-In . SVG Version: 6.00 Build 0)  -->
<svg version="1.1" id="Layer_1" xmlns="http://www.w3.org/2000/svg" xmlns:xlink="http://www.w3.org/1999/xlink" x="0px" y="0px"
	 width="493px" height="141.8px" viewBox="0 0 493 141.8" style="enable-background:new 0 0 493 141.8;" xml:space="preserve">
<style type="text/css">
	.st0{fill:#1EA2B1;}
	.st1{fill:#B2D24B;}
	
		.st2{clip-path:url(#SVGID_00000017499463360214948370000012333622224244931462_);fill:url(#SVGID_00000118364762100803793850000005197460598457276579_);}
	.st3{fill:#828282;}
</style>
<path class="st0" d="M171.9,56.9h7.7c6.2,0,11.2,1,15.9,5.4c4.5,4.2,6.8,9.9,6.8,16c0,5.9-2.3,11.5-6.6,15.6
	c-4.7,4.5-9.7,5.7-16.1,5.7h-7.7V56.9z M240.6,76.9h0.1c1-2.4,2.9-4,5.7-4c1,0,1.9,0.2,2.8,0.6l-1.4,2.3c-0.6-0.3-1.1-0.5-1.8-0.5
	c-5.7,0-5.4,7.1-5.4,11v13.4h-2.6V73.5h2.6V76.9z M271.1,73.5v15.7c0,2.7,0.1,5.3-1.6,7.5c-1.8,2.4-4.9,3.5-7.8,3.5
	c-2.9,0-6-1.1-7.8-3.5c-1.6-2.2-1.6-4.9-1.6-7.5V73.5h2.6v14.8c0,5,0.6,9.6,6.9,9.6c6.3,0,6.9-4.5,6.9-9.6V73.5H271.1z M282.9,64.8
	c0,1.3-1,2.3-2.3,2.3c-1.3,0-2.3-1-2.3-2.3c0-1.2,1-2.3,2.3-2.3C281.9,62.4,282.9,63.5,282.9,64.8z M281.8,99.7h-2.6V73.5h2.6V99.7z
	 M290.4,86.8c-0.2,6.6,4.4,11,10.5,11c4.1,0,7.4-2.4,9.2-5.9l2.2,1.2c-2.4,4.5-6.6,7.1-11.7,7.1c-7.8,0-12.7-6.3-12.7-13.7
	c0-7.3,5-13.6,12.7-13.6c7.9,0,12.6,6.3,12.6,13.9H290.4z M310.6,84.4c-0.6-4.8-4.6-9.1-10-9.1c-5.3,0-9.7,4.2-10.2,9.1H310.6z
	 M341.2,99.7h-2.6V75.9h-2.9v-2.4h2.9v-9.3h2.6v9.3h4.6v2.4h-4.6V99.7z M349.7,86.8c-0.2,6.6,4.4,11,10.5,11c4.1,0,7.4-2.4,9.2-5.9
	l2.2,1.2c-2.4,4.5-6.6,7.1-11.7,7.1c-7.8,0-12.7-6.3-12.7-13.7c0-7.3,5-13.6,12.7-13.6c7.9,0,12.6,6.3,12.6,13.9H349.7z M369.9,84.4
	c-0.6-4.8-4.6-9.1-10-9.1c-5.3,0-9.7,4.2-10.2,9.1H369.9z M398.3,85.6l-5.7,14.1h-2.8l17.9-44.1l17.8,44.1h-2.8l-5.7-14.1H398.3z
	 M407.7,62.4l-8.4,20.6H416L407.7,62.4z M431.6,76.9h0.1c1-2.4,2.9-4,5.7-4c1,0,1.9,0.2,2.8,0.6l-1.4,2.3c-0.6-0.3-1.1-0.5-1.8-0.5
	c-5.7,0-5.4,7.1-5.4,11v13.4h-2.6V73.5h2.6V76.9z M448.3,64.8c0,1.3-1,2.3-2.3,2.3c-1.3,0-2.3-1-2.3-2.3c0-1.2,1-2.3,2.3-2.3
	C447.3,62.4,448.3,63.5,448.3,64.8z M447.2,99.7h-2.5V73.5h2.5V99.7z M458.4,78.2h0.1c1.9-3.3,6.1-5.3,10-5.3
	c8,0,12.9,6.2,12.9,13.9s-4.9,13.4-12.8,13.4c-4,0-7.9-1.8-10.1-5.1h-0.1v26.6h-2.5V73.5h2.5V78.2z M458.2,87.1
	c0,6.1,4.1,10.7,10.4,10.7c6.1,0,10.2-5.2,10.2-11c0-6-3.9-11.6-10.3-11.6C461.8,75.3,458.2,80.8,458.2,87.1z M491,64.8
	c0,1.3-1,2.3-2.3,2.3c-1.3,0-2.3-1-2.3-2.3c0-1.2,1-2.3,2.3-2.3C490,62.4,491,63.5,491,64.8z M489.9,99.7h-2.6V73.5h2.6V99.7z
	 M329.9,78.2c-0.9-1.8-2.6-2.9-4.6-2.9c-2.2,0-4.5,1.8-4.5,4.1c0,6.3,12.7,3.2,12.7,12.7c0,4.8-3.7,8.2-8.4,8.2
	c-4.4,0-7.9-2.7-9-6.9l2.5-0.8c1,3.1,3.1,5.3,6.5,5.3c3.3,0,5.9-2.6,5.9-5.9c0-3.2-2.5-4.3-5.1-5.2c-3.6-1.3-7.6-2.8-7.6-7.3
	c0-4,3.3-6.6,7.1-6.6c2.7,0,5.6,1.8,6.7,4.2L329.9,78.2z M324.2,107.8l-1.4-0.3l2-5.3l2,0.3L324.2,107.8z M231.1,99.7h-2.6V95h-0.1
	c-1.9,3.3-6.1,5.3-10,5.3c-7.9,0-12.9-6.2-12.9-13.8s4.9-13.5,12.8-13.5c4,0,7.9,1.8,10.1,5.1h0.1v-4.5h2.6V99.7z M208.1,86.4
	c0,6,4,11.4,10.3,11.4c6.7,0,10.3-5.4,10.3-11.7c0-6.1-4.1-10.8-10.5-10.8C212.3,75.3,208.1,80.7,208.1,86.4z M225.1,64.2h2.2
	c-1.6,3.4-4.1,5.1-7.6,5.1c-3.3,0-5.8-1.7-7.7-5.1h2.3c1.2,2,3,3,5.4,3C222,67.1,223.8,66.1,225.1,64.2z M179.5,97.1
	c5.6,0,10.3-1.1,14.3-5.2c3.6-3.6,5.7-8.5,5.7-13.6c0-5.4-2.2-10.5-6.2-14.2c-4.1-3.7-8.5-4.6-13.8-4.6h-4.9v37.6H179.5z"/>
<path class="st1" d="M83.1,85.5c-9.5-11-22.7-19.9-39.1-21.1C52.4,67,66,73,73.7,84.6C75.2,83.5,81.7,86.6,83.1,85.5"/>
<path class="st1" d="M70.2,6.1c8.2,9.6,16.6,22.9,16.7,36c3.6-0.6,7.3-1.2,10.9-1.7C93.6,26.1,82.2,14.3,70.2,6.1"/>
<path class="st1" d="M48.1,53c4.4,2.3,7.9,6.6,10.8,11.1c1.5-2.4,3-4.7,4.6-7.1C58.6,54.5,53.3,52.3,48.1,53"/>
<path class="st1" d="M35.2,56.1c10.2,1.4,25.1,3.4,32.6,11.3c1.7-2.2,3.5-4.4,5.2-6.6C62.4,54.2,47.1,55,35.2,56.1"/>
<path class="st1" d="M95.7,139.9C83.4,126.4,80,107,85.9,90c-2.5-0.7-5-1.5-7.6-2.2C74.7,106.8,80.4,127.3,95.7,139.9"/>
<path class="st1" d="M25.4,40.2c24.8,6.5,33.7,15.5,50.6,29c2-2.8,4-5.7,6-8.5C74.7,54.2,51,43.6,25.4,40.2"/>
<path class="st1" d="M20.6,20.4c0,0,43,5.1,65.4,32.3l-13.5-1.1C72.5,51.6,58.6,31.4,20.6,20.4"/>
<path class="st1" d="M225.1,44.1c-24-16.7-56.5-17.6-83.8-10.3c1,3,2.1,5.9,3.1,8.9C169.6,32.9,200.6,30.7,225.1,44.1"/>
<path class="st1" d="M77.5,134.4c-5.5-20.8-7.3-36.8-0.2-54.5c-3.9-1.2,0.5-9.2-3.4-10.4C70.2,90,62.9,107.2,77.5,134.4"/>
<path class="st1" d="M117.8,47.6c0,0,1.7-28,22.7-30.8c21.1-2.8,28.4,14.5,28.4,14.5L117.8,47.6z"/>
<g>
	<defs>
		<path id="SVGID_1_" d="M88,35.1C53.4,9.4,7.8,9.4,0.9,9.5c-0.5,0-0.8,0-0.9,0c26.1,5.9,50,18,71.9,33.1
			c-9.4-3.9-19.3-6.9-29.3-8.9c-5.8-1.2-11.7-2-17.7-2.5c-1-0.1-13.3-0.4-13.3-0.2c0,0.2,4.7,1.1,5.1,1.2c2.5,0.7,5,1.4,7.5,2.3
			c5.2,1.8,10.3,3.9,15.3,6.3c9.1,4.2,17.8,9.7,25.8,15.8c-9.5-0.9-18.8,0-28.1,1.8c12.6,4.6,26,10.9,33.7,22.4
			c0,0.1-0.1,0.2-0.1,0.3l0,0c-0.1,0.2-0.1,0.5-0.2,0.7l0,0h0c-3.3,11-3.2,22.3,0.5,33.2c3.4,9.9,9.3,19.5,16.8,26.9
			c-3-6.6-4.8-14-5.5-21.2c4.3,7.4,10.8,14.3,18.4,18.4c-16.3-23.9-5.5-43.5-5.5-43.5s14.5-0.7,25.7-8.5
			c10.1-7.1,18.5-23.6,21.4-29.5c2.6-5.4,9.7-14.3,15-17.8c4.5-3.1,8.9-4.6,13.7-7c-5.8-7.7-15.4-12.6-25.1-12.1
			c-11.1,0.7-20.3,7.1-27.4,15.3c-6-7.9-13.5-14.8-21.6-20.5C89,9.8,79.9,4.7,70.5,2C78.8,11.3,84.5,23.2,88,35.1z"/>
	</defs>
	<clipPath id="SVGID_00000059998637249588550700000016682600062372350095_">
		<use xlink:href="#SVGID_1_"  style="overflow:visible;"/>
	</clipPath>
	
		<linearGradient id="SVGID_00000012450993108476439970000008909838471410195617_" gradientUnits="userSpaceOnUse" x1="9.4931" y1="81.8619" x2="174.7132" y2="60.202">
		<stop  offset="0" style="stop-color:#1EA2B1"/>
		<stop  offset="1" style="stop-color:#6ECCE1"/>
	</linearGradient>
	
		<rect y="2" style="clip-path:url(#SVGID_00000059998637249588550700000016682600062372350095_);fill:url(#SVGID_00000012450993108476439970000008909838471410195617_);" width="171.1" height="139.8"/>
</g>
<path class="st3" d="M433.5,132.6h1.9v-4.4c0-3.2,1.9-4.9,4.3-4.9h0.1v-2c-2-0.1-3.6,1.2-4.4,3v-2.8h-1.9V132.6z M422.4,126.3
	c0.2-2,1.6-3.5,3.4-3.5c2,0,3.2,1.6,3.3,3.5H422.4z M426.1,132.8c2.1,0,3.5-0.8,4.6-2.1l-1.2-1.1c-0.9,0.9-1.9,1.5-3.4,1.5
	c-1.9,0-3.5-1.3-3.7-3.5h8.7c0-0.2,0-0.4,0-0.6c0-3.2-1.9-6-5.3-6c-3.1,0-5.4,2.6-5.4,5.8v0C420.5,130.5,423,132.8,426.1,132.8z
	 M414.8,132.8c2.1,0,3.5-0.9,4.6-2.1l-1.2-1.2c-0.9,0.9-1.9,1.6-3.3,1.6c-2.2,0-3.9-1.8-3.9-4.1v0c0-2.3,1.6-4.1,3.8-4.1
	c1.5,0,2.4,0.7,3.2,1.6l1.2-1.3c-1.1-1.1-2.4-2-4.5-2c-3.3,0-5.8,2.7-5.8,5.9v0C409,130.2,411.5,132.8,414.8,132.8z M396.9,132.6
	h1.9v-6.4c0-2,1.3-3.3,3.1-3.3c1.8,0,2.9,1.2,2.9,3.2v6.5h1.9v-7c0-2.6-1.5-4.4-4.2-4.4c-1.8,0-3,1-3.7,2.1v-1.9h-1.9V132.6z
	 M388.7,131.3c-1.4,0-2.6-0.8-2.6-2.1v0c0-1.3,1.1-2.2,3.1-2.2c1.3,0,2.3,0.2,3.1,0.5v1C392.2,130.2,390.7,131.3,388.7,131.3z
	 M388.2,132.8c1.9,0,3.1-0.9,3.9-1.8v1.6h1.9v-6.8c0-1.4-0.4-2.6-1.2-3.3c-0.8-0.8-2-1.2-3.6-1.2c-1.7,0-2.9,0.4-4.1,1l0.6,1.6
	c1-0.5,2-0.8,3.3-0.8c2,0,3.2,1,3.2,2.9v0.4c-1-0.3-1.9-0.5-3.3-0.5c-2.8,0-4.7,1.2-4.7,3.6v0C384.1,131.6,386.1,132.8,388.2,132.8z
	 M378.2,132.8c2.1,0,3.5-0.9,4.6-2.1l-1.2-1.2c-0.9,0.9-1.9,1.6-3.3,1.6c-2.2,0-3.9-1.8-3.9-4.1v0c0-2.3,1.6-4.1,3.8-4.1
	c1.5,0,2.4,0.7,3.2,1.6l1.2-1.3c-1.1-1.1-2.4-2-4.5-2c-3.3,0-5.8,2.7-5.8,5.9v0C372.5,130.2,374.9,132.8,378.2,132.8z M357.2,132.8
	c1.8,0,3-1,3.7-2.1v1.9h1.9v-11.2h-1.9v6.4c0,2-1.3,3.3-3.1,3.3c-1.8,0-2.9-1.2-2.9-3.2v-6.5H353v7C353,131,354.5,132.8,357.2,132.8
	z M346.5,132.8c2.1,0,3.5-0.9,4.6-2.1l-1.2-1.2c-0.9,0.9-1.9,1.6-3.3,1.6c-2.2,0-3.9-1.8-3.9-4.1v0c0-2.3,1.6-4.1,3.8-4.1
	c1.5,0,2.4,0.7,3.2,1.6l1.2-1.3c-1.1-1.1-2.4-2-4.5-2c-3.3,0-5.8,2.7-5.8,5.9v0C340.7,130.2,343.2,132.8,346.5,132.8z M329,132.6
	h1.9v-11.2H329V132.6z M328.9,119.2h2.2v-2h-2.2V119.2z M323.7,132.6h1.9v-11.2h-1.9V132.6z M323.6,119.2h2.2v-2h-2.2V119.2z
	 M318.4,132.6h1.9v-11.2h-1.9V132.6z M318.3,119.2h2.2v-2h-2.2V119.2z M310.1,131.1c-2,0-3.8-1.7-3.8-4.1v0c0-2.4,1.8-4.1,3.8-4.1
	c2,0,3.7,1.6,3.7,4.1v0C313.8,129.6,312.1,131.1,310.1,131.1z M304.4,136h1.9v-5.5c0.8,1.2,2.1,2.3,4.2,2.3c2.6,0,5.3-2.1,5.3-5.8v0
	c0-3.7-2.6-5.8-5.3-5.8c-2,0-3.3,1.1-4.2,2.4v-2.1h-1.9V136z M296.1,131.1c-2.2,0-3.9-1.9-3.9-4.1v0c0-2.2,1.6-4.1,3.9-4.1
	c2.2,0,3.9,1.9,3.9,4.1v0C300,129.3,298.5,131.1,296.1,131.1z M296.1,132.8c3.4,0,5.9-2.7,5.9-5.8v0c0-3.2-2.5-5.8-5.8-5.8
	c-3.4,0-5.9,2.7-5.9,5.9v0C290.2,130.2,292.7,132.8,296.1,132.8z M284.5,132.8c2.1,0,3.5-0.9,4.6-2.1l-1.2-1.2
	c-0.9,0.9-1.9,1.6-3.3,1.6c-2.2,0-3.9-1.8-3.9-4.1v0c0-2.3,1.6-4.1,3.8-4.1c1.5,0,2.4,0.7,3.2,1.6l1.2-1.3c-1.1-1.1-2.4-2-4.5-2
	c-3.3,0-5.8,2.7-5.8,5.9v0C278.8,130.2,281.3,132.8,284.5,132.8z M263.5,132.8c1.8,0,3-1,3.7-2.1v1.9h1.9v-11.2h-1.9v6.4
	c0,2-1.3,3.3-3.1,3.3c-1.8,0-2.9-1.2-2.9-3.2v-6.5h-1.9v7C259.3,131,260.8,132.8,263.5,132.8z M251.2,132.6h1.9v-4.4
	c0-3.2,1.9-4.9,4.3-4.9h0.1v-2c-2-0.1-3.6,1.2-4.4,3v-2.8h-1.9V132.6z M246.7,132.8c0.8,0,1.5-0.2,2.1-0.5v-1.6
	c-0.6,0.3-1,0.4-1.6,0.4c-1.1,0-1.7-0.5-1.7-1.7v-6.2h3.4v-1.7h-3.4v-3.3h-1.9v3.3H242v1.7h1.5v6.5
	C243.5,131.9,244.9,132.8,246.7,132.8z M230.2,132.6h1.9v-6.4c0-2,1.3-3.3,3.1-3.3c1.8,0,2.9,1.2,2.9,3.2v6.5h1.9v-7
	c0-2.6-1.5-4.4-4.2-4.4c-1.8,0-3,1-3.7,2.1v-1.9h-1.9V132.6z M219.2,126.3c0.2-2,1.6-3.5,3.4-3.5c2,0,3.2,1.6,3.3,3.5H219.2z
	 M222.8,132.8c2.1,0,3.5-0.8,4.6-2.1l-1.2-1.1c-0.9,0.9-1.9,1.5-3.4,1.5c-1.9,0-3.5-1.3-3.7-3.5h8.7c0-0.2,0-0.4,0-0.6
	c0-3.2-1.9-6-5.3-6c-3.1,0-5.4,2.6-5.4,5.8v0C217.2,130.5,219.8,132.8,222.8,132.8z M209.7,131.1c-2,0-3.8-1.7-3.8-4.1v0
	c0-2.4,1.8-4.1,3.8-4.1c2,0,3.7,1.6,3.7,4.1v0C213.5,129.6,211.8,131.1,209.7,131.1z M204,136h1.9v-5.5c0.8,1.2,2.1,2.3,4.2,2.3
	c2.6,0,5.3-2.1,5.3-5.8v0c0-3.7-2.6-5.8-5.3-5.8c-2,0-3.3,1.1-4.2,2.4v-2.1H204V136z M176.9,132.6h1.9v-6.4c0-1.9,1.2-3.3,2.9-3.3
	c1.7,0,2.7,1.2,2.7,3.1v6.5h1.9v-6.4c0-2.1,1.3-3.2,2.9-3.2c1.7,0,2.7,1.1,2.7,3.2v6.5h1.9v-7c0-2.8-1.5-4.4-4.1-4.4
	c-1.9,0-3.1,0.9-3.9,2.1c-0.6-1.2-1.8-2.1-3.5-2.1c-1.9,0-2.8,1-3.6,2.1v-1.8h-1.9V132.6z M169.4,119.8c1.9,0,3.2-1,3.3-2.8h-1.4
	c-0.2,0.8-0.8,1.3-1.9,1.3c-1.1,0-1.7-0.5-1.9-1.3H166C166.2,118.8,167.5,119.8,169.4,119.8z M168.6,131.3c-1.4,0-2.6-0.8-2.6-2.1v0
	c0-1.3,1.1-2.2,3.1-2.2c1.3,0,2.3,0.2,3.1,0.5v1C172.1,130.2,170.6,131.3,168.6,131.3z M168.2,132.8c1.9,0,3.1-0.9,3.9-1.8v1.6h1.9
	v-6.8c0-1.4-0.4-2.6-1.2-3.3c-0.8-0.8-2-1.2-3.6-1.2c-1.7,0-2.9,0.4-4.1,1l0.6,1.6c1-0.5,2-0.8,3.3-0.8c2,0,3.2,1,3.2,2.9v0.4
	c-1-0.3-1.9-0.5-3.3-0.5c-2.8,0-4.7,1.2-4.7,3.6v0C164.1,131.6,166.1,132.8,168.2,132.8z M156.9,132.7h1.7l4.8-11.3h-2.1l-3.6,9
	l-3.5-9h-2.1L156.9,132.7z M145.6,131.1c-2.2,0-3.9-1.9-3.9-4.1v0c0-2.2,1.6-4.1,3.9-4.1c2.2,0,3.9,1.9,3.9,4.1v0
	C149.5,129.3,147.9,131.1,145.6,131.1z M145.6,132.8c3.4,0,5.9-2.7,5.9-5.8v0c0-3.2-2.5-5.8-5.8-5.8c-3.4,0-5.9,2.7-5.9,5.9v0
	C139.7,130.2,142.2,132.8,145.6,132.8z M127.6,132.6h1.9v-6.4c0-2,1.3-3.3,3.1-3.3c1.8,0,2.9,1.2,2.9,3.2v6.5h1.9v-7
	c0-2.6-1.5-4.4-4.2-4.4c-1.8,0-3,1-3.7,2.1v-1.9h-1.9V132.6z M122.5,132.6h1.9v-11.2h-1.9V132.6z M122.3,119.2h2.2v-2h-2.2V119.2z"
	/>
</svg>
